<?xml version="1.0" encoding="utf-8"?>
<!-- Generator: Adobe Illustrator 13.0.0, SVG Export Plug-In . SVG Version: 6.00 Build 14948)  -->
<!DOCTYPE svg PUBLIC "-//W3C//DTD SVG 1.1//EN" "http://www.w3.org/Graphics/SVG/1.1/DTD/svg11.dtd">
<svg version="1.1" id="Layer_1" xmlns="http://www.w3.org/2000/svg" xmlns:xlink="http://www.w3.org/1999/xlink" x="0px" y="0px"
	 width="595.275px" height="841.891px" viewBox="0 0 595.275 841.891" enable-background="new 0 0 595.275 841.891"
	 xml:space="preserve">
<g>
	<path fill="#908F9D" d="M149.981,433.153c3.023,0,6.162-1.163,8.487-3.488l295.312-285.43c4.883-4.651,4.999-12.44,0.349-17.324
		c-4.65-4.883-12.44-4.999-17.323-0.349L141.494,411.993c-4.883,4.65-5,12.44-0.349,17.323
		C143.587,431.99,146.726,433.153,149.981,433.153z"/>
	<path fill="#908F9D" d="M445.294,718.583c3.256,0,6.395-1.278,8.836-3.721c4.65-4.883,4.534-12.673-0.349-17.323l-295.312-285.43
		c-4.883-4.651-12.673-4.534-17.323,0.349c-4.651,4.883-4.534,12.673,0.349,17.323l295.312,285.431
		C439.132,717.421,442.271,718.583,445.294,718.583z"/>
</g>
</svg>
