<?xml version="1.0" encoding="utf-8"?>
<!-- Generator: Adobe Illustrator 13.0.0, SVG Export Plug-In . SVG Version: 6.00 Build 14948)  -->
<!DOCTYPE svg PUBLIC "-//W3C//DTD SVG 1.1//EN" "http://www.w3.org/Graphics/SVG/1.1/DTD/svg11.dtd">
<svg version="1.1" id="Layer_1" xmlns="http://www.w3.org/2000/svg" xmlns:xlink="http://www.w3.org/1999/xlink" x="0px" y="0px"
	 width="500px" height="500px" viewBox="0 0 500 500" enable-background="new 0 0 500 500" xml:space="preserve">
<path fill="#FFFFFF" d="M177.317,367.111v27.347c0,12.72,5.27,24.264,13.717,32.522l26.714,26.716
	c17.807,17.811,46.695,17.811,64.504,0l26.716-26.716c8.444-8.26,13.717-19.804,13.717-32.522v-18.261H241.82
	c-10.54,0-19.076-8.182-19.076-18.172c0-9.991,8.536-18.173,19.076-18.173h83.223c12.448-70.049,70.324-99.124,70.324-167.44
	c0-78.132-65.052-141.466-145.366-141.466c-80.315,0-145.368,63.333-145.368,141.466
	C104.633,249.55,177.317,276.805,177.317,367.111z M274.08,112.715c-8.543-1.543-14.993-8.996-14.993-17.896
	c0-9.989,8.181-18.444,18.172-18.444c14.442,0,31.974,10.265,46.695,24.807c14.993,14.898,25.984,34.799,25.984,47.876
	c0,9.992-8.181,18.172-18.166,18.172c-8.911,0-16.354-6.451-17.906-14.995C309.323,133.975,293.708,117.259,274.08,112.715z"/>
</svg>
