<?xml version="1.0" encoding="utf-8"?>
<!-- Generator: Adobe Illustrator 13.0.0, SVG Export Plug-In . SVG Version: 6.00 Build 14948)  -->
<!DOCTYPE svg PUBLIC "-//W3C//DTD SVG 1.1//EN" "http://www.w3.org/Graphics/SVG/1.1/DTD/svg11.dtd">
<svg version="1.1" id="Layer_1" xmlns="http://www.w3.org/2000/svg" xmlns:xlink="http://www.w3.org/1999/xlink" x="0px" y="0px"
	 width="500px" height="500px" viewBox="0 0 500 500" enable-background="new 0 0 500 500" xml:space="preserve">
<path fill="#FFFFFF" d="M31.949,403.452c0,35.163,28.435,63.599,63.599,63.599c17.529,0,33.891-6.638,45.426-18.172l115.93-116.019
	l31.072,31.071c-4.183,15.265-0.182,32.345,11.904,44.519l45.063,45.062c17.984,17.9,46.781,18.08,64.504,0.362
	c17.719-17.722,17.539-46.512-0.366-64.504l-45.063-45.063c-12.174-12.085-29.254-16.078-44.514-11.897l-31.071-30.991
	l19.982-19.983c42.516,10.723,89.397-0.459,122.563-32.888c22.803-22.351,35.352-50.698,37.069-80.04v-1.543
	c0-9.91-8.181-17.905-18.26-17.905c-5.001,0-9.544,2.006-12.907,5.181l-5.353,5.271l-18.356,17.985
	c-11.543,11.268-27.983,17.896-45.701,17.896c-17.622,0-33.165-7.718-44.7-19.076c-11.355-11.532-19.166-27.167-19.166-44.788
	c0-17.717,6.63-34.158,17.896-45.701l17.985-18.358l5.269-5.351c3.181-3.363,5.182-7.906,5.182-12.91
	c0-10.079-7.992-18.261-17.904-18.261h-1.544c-29.34,1.722-57.687,14.269-80.038,37.071c-32.43,33.165-43.52,80.047-32.802,122.478
	l-20.069,20.068l-83.863-83.942v-22.988L59.205,76.376l-27.256,27.256l27.256,54.513h22.891l83.951,83.863L50.119,358.026
	C38.586,369.561,31.949,385.923,31.949,403.452z M77.375,398.909c0-12.536,10.177-22.712,22.714-22.712
	c12.538,0,22.713,10.176,22.713,22.712c0,12.535-10.175,22.716-22.713,22.716C87.553,421.625,77.375,411.445,77.375,398.909z"/>
</svg>
