<?xml version="1.0" encoding="utf-8"?>
<!-- Generator: Adobe Illustrator 13.0.0, SVG Export Plug-In . SVG Version: 6.00 Build 14948)  -->
<!DOCTYPE svg PUBLIC "-//W3C//DTD SVG 1.1//EN" "http://www.w3.org/Graphics/SVG/1.1/DTD/svg11.dtd">
<svg version="1.1" id="Layer_1" xmlns="http://www.w3.org/2000/svg" xmlns:xlink="http://www.w3.org/1999/xlink" x="0px" y="0px"
	 width="595.275px" height="841.891px" viewBox="0 0 595.275 841.891" enable-background="new 0 0 595.275 841.891"
	 xml:space="preserve">
<g>
	<path fill="#A9A9B7" d="M285.039,27.072c0,2.872,1.101,5.854,3.301,8.062l270.112,280.538c4.401,4.639,11.773,4.749,16.395,0.332
		c4.621-4.418,4.73-11.818,0.33-16.457L305.063,19.01c-4.401-4.639-11.773-4.75-16.394-0.332
		C286.139,20.997,285.039,23.979,285.039,27.072z"/>
	<path fill="#A9A9B7" d="M14.926,307.61c0,3.093,1.209,6.075,3.521,8.394c4.621,4.417,11.993,4.307,16.394-0.332L304.954,35.135
		c4.401-4.639,4.29-12.039-0.331-16.457c-4.62-4.418-11.993-4.307-16.394,0.332L18.116,299.547
		C16.025,301.756,14.926,304.739,14.926,307.61z"/>
</g>
<g>
	<path fill="#A9A9B7" stroke="#323245" stroke-width="30" d="M308.239,813.364c0-2.956-1.104-6.027-3.311-8.302L33.996,516.214
		c-4.416-4.775-11.809-4.89-16.444-0.342c-4.635,4.549-4.746,12.17-0.332,16.944l270.934,288.849
		c4.414,4.776,11.808,4.891,16.444,0.343C307.136,819.618,308.239,816.549,308.239,813.364z"/>
	<path fill="#A9A9B7" stroke="#323245" stroke-width="30" d="M579.171,524.515c0-3.186-1.211-6.254-3.532-8.644
		c-4.636-4.548-12.026-4.434-16.441,0.342L288.265,805.062c-4.416,4.774-4.305,12.396,0.331,16.945
		c4.635,4.548,12.029,4.433,16.444-0.343l270.93-288.849C578.067,530.543,579.171,527.47,579.171,524.515z"/>
</g>
</svg>
