<?xml version="1.0" encoding="utf-8"?>
<!-- Generator: Adobe Illustrator 13.0.0, SVG Export Plug-In . SVG Version: 6.00 Build 14948)  -->
<!DOCTYPE svg PUBLIC "-//W3C//DTD SVG 1.1//EN" "http://www.w3.org/Graphics/SVG/1.1/DTD/svg11.dtd">
<svg version="1.1" id="Layer_1" xmlns="http://www.w3.org/2000/svg" xmlns:xlink="http://www.w3.org/1999/xlink" x="0px" y="0px"
	 width="512px" height="512px" viewBox="0 0 512 512" enable-background="new 0 0 512 512" xml:space="preserve">
<g id="layer" display="none">
	<g display="inline">
		
			<polyline fill="none" stroke="#000000" stroke-width="16" stroke-linecap="round" stroke-linejoin="round" stroke-miterlimit="10" points="
			411,256 260,407 411,256 260,105 		"/>
		
			<polyline fill="none" stroke="#000000" stroke-width="16" stroke-linecap="round" stroke-linejoin="round" stroke-miterlimit="10" points="
			252,256 101,407 252,256 101,105 		"/>
	</g>
</g>
<g id="layer_copy">
	<g>
		<path fill="#43435C" d="M260,415c-2.048,0-4.095-0.781-5.657-2.343C252.781,411.095,252,409.048,252,407s0.781-4.096,2.343-5.657
			L399.687,256L254.343,110.656c-3.125-3.123-3.125-8.188,0-11.312c3.124-3.124,8.189-3.124,11.314,0l151,151
			c1.562,1.562,2.343,3.609,2.343,5.657s-0.781,4.095-2.343,5.657l-151,151C264.096,414.219,262.048,415,260,415z"/>
	</g>
	<g>
		<path fill="#43435C" d="M101,415c-2.047,0-4.095-0.781-5.657-2.343C93.781,411.095,93,409.048,93,407s0.781-4.096,2.343-5.657
			L240.686,256L95.343,110.656c-3.125-3.123-3.125-8.188,0-11.312c3.124-3.124,8.189-3.124,11.313,0l151,151
			c1.562,1.562,2.343,3.609,2.343,5.657s-0.781,4.095-2.343,5.657l-151,151C105.095,414.219,103.047,415,101,415z"/>
	</g>
</g>
</svg>
