<?xml version="1.0" encoding="utf-8"?>
<!-- Generator: Adobe Illustrator 13.0.0, SVG Export Plug-In . SVG Version: 6.00 Build 14948)  -->
<!DOCTYPE svg PUBLIC "-//W3C//DTD SVG 1.1//EN" "http://www.w3.org/Graphics/SVG/1.1/DTD/svg11.dtd">
<svg version="1.1" id="Layer_1" xmlns="http://www.w3.org/2000/svg" xmlns:xlink="http://www.w3.org/1999/xlink" x="0px" y="0px"
	 width="500px" height="500px" viewBox="0 0 500 500" enable-background="new 0 0 500 500" xml:space="preserve">
<path fill="#FFFFFF" d="M281.525,228.102l104.758-78.042c12.082-12.085,12.082-24.259,0-36.342L281.525,35.674
	c-3.274-2.359-7.359-3.726-11.724-3.726c-10.991,0-19.803,8.536-19.803,19.083v35.43C144.611,86.737,59.205,172.046,59.205,277.258
	c0,105.396,85.672,190.793,191.248,190.793c98.03,0,178.809-73.498,189.977-168.169c0.093-0.275,0.367-3.188,0.367-4.455
	c0-9.992-8.181-18.169-18.261-18.169h-45.793c-14.993,0-26.35,10.354-27.894,18.986c-8.811,46.155-49.519,80.953-98.396,80.953
	c-55.329,0-100.127-44.7-100.127-99.939c0-55.064,44.523-99.667,99.674-99.941v35.438c0,10.541,8.811,19.076,19.803,19.076
	C274.166,231.83,278.251,230.471,281.525,228.102z"/>
</svg>
