<?xml version="1.0" encoding="utf-8"?>
<!-- Generator: Adobe Illustrator 13.0.0, SVG Export Plug-In . SVG Version: 6.00 Build 14948)  -->
<!DOCTYPE svg PUBLIC "-//W3C//DTD SVG 1.1//EN" "http://www.w3.org/Graphics/SVG/1.1/DTD/svg11.dtd">
<svg version="1.1" id="Layer_1" xmlns="http://www.w3.org/2000/svg" xmlns:xlink="http://www.w3.org/1999/xlink" x="0px" y="0px"
	 width="500px" height="500px" viewBox="0 0 500 500" enable-background="new 0 0 500 500" xml:space="preserve">
<path fill="#FFFFFF" d="M227.787,249.5c0-12.536,10.177-22.713,22.713-22.713c12.537,0,22.715,10.177,22.715,22.713
	c0,12.537-10.178,22.715-22.715,22.715C237.964,272.216,227.787,262.037,227.787,249.5z M250.5,190.445
	c-32.615,0-59.056,26.44-59.056,59.056c0,32.614,26.441,59.056,59.056,59.056c32.614,0,59.056-26.441,59.056-59.056
	C309.556,216.885,283.114,190.445,250.5,190.445z M97.501,292.933c3.452,12.261,8.358,23.894,14.533,34.697l-27.256,29.804
	c-7.808,7.818-7.808,20.445,0,28.259l29.528,29.528c7.817,7.81,20.443,7.81,28.259,0l29.803-27.254
	c10.807,6.174,22.438,11.08,34.701,14.529l2.547,40.524c0,11.08,8.906,19.987,19.989,19.987h41.792
	c11.08,0,19.986-8.907,19.986-19.987l2.536-40.524c12.273-3.449,23.904-8.355,34.713-14.529l29.8,27.254
	c7.817,7.81,20.446,7.81,28.261,0l29.527-29.528c7.811-7.812,7.811-20.439,0-28.259l-27.255-29.804
	c6.174-10.805,11.08-22.438,14.53-34.697l40.523-2.549c11.08,0,19.987-8.906,19.987-19.986v-41.791
	c0-11.086-8.907-19.99-19.987-19.99l-40.523-2.541c-3.45-12.269-8.356-23.898-14.53-34.709l27.255-29.8
	c7.811-7.815,7.811-20.441,0-28.26l-29.527-29.528c-7.813-7.812-20.442-7.812-28.261,0l-29.8,27.257
	c-10.809-6.175-22.438-11.081-34.713-14.533l-2.536-40.521c0-11.086-8.906-19.991-19.986-19.991h-41.792
	c-11.083,0-19.989,8.905-19.989,19.991l-2.547,40.521c-12.263,3.452-23.894,8.357-34.701,14.533l-29.803-27.257
	c-7.816-7.812-20.442-7.812-28.259,0l-29.528,29.528c-7.808,7.818-7.808,20.444,0,28.26l27.256,29.799
	c-6.175,10.812-11.081,22.442-14.533,34.71l-40.521,2.54c-11.082,0-19.989,8.905-19.989,19.991v41.791
	c0,11.08,8.907,19.986,19.989,19.986L97.501,292.933z M250.5,154.103c52.693,0,95.396,42.705,95.396,95.398
	s-42.701,95.396-95.396,95.396c-52.694,0-95.398-42.702-95.398-95.396C155.102,196.807,197.806,154.103,250.5,154.103z"/>
</svg>
