<?xml version="1.0" encoding="utf-8"?>
<!-- Generator: Adobe Illustrator 13.0.0, SVG Export Plug-In . SVG Version: 6.00 Build 14948)  -->
<!DOCTYPE svg PUBLIC "-//W3C//DTD SVG 1.1//EN" "http://www.w3.org/Graphics/SVG/1.1/DTD/svg11.dtd">
<svg version="1.1" id="Layer_1" xmlns="http://www.w3.org/2000/svg" xmlns:xlink="http://www.w3.org/1999/xlink" x="0px" y="0px"
	 width="512px" height="512px" viewBox="0 0 512 512" enable-background="new 0 0 512 512" xml:space="preserve">
<g>
	<g>
		<path fill="#FFFFFF" d="M480,0H224c-17.688,0-32,14.312-32,32v256c0,17.688,14.312,32,32,32h256c17.688,0,32-14.312,32-32V32
			C512,14.312,497.688,0,480,0z M448,256H256V64h192V256z M256,448H64V256h64v-64H32c-17.688,0-32,14.312-32,32v256
			c0,17.688,14.312,32,32,32h256c17.688,0,32-14.312,32-32v-96h-64V448z"/>
	</g>
</g>
</svg>
