<?xml version="1.0" encoding="utf-8"?>
<!-- Generator: Adobe Illustrator 13.0.0, SVG Export Plug-In . SVG Version: 6.00 Build 14948)  -->
<!DOCTYPE svg PUBLIC "-//W3C//DTD SVG 1.1//EN" "http://www.w3.org/Graphics/SVG/1.1/DTD/svg11.dtd">
<svg version="1.1" id="Layer_1" xmlns="http://www.w3.org/2000/svg" xmlns:xlink="http://www.w3.org/1999/xlink" x="0px" y="0px"
	 width="595.275px" height="841.891px" viewBox="0 0 595.275 841.891" enable-background="new 0 0 595.275 841.891"
	 xml:space="preserve">
<g id="info">
</g>
<g id="icons">
	<g id="notification">
		<path fill="#5C5B6C" d="M339.803,619.37h-86.811c-17.362,0-32.244,19.843-22.323,37.205
			c14.882,22.323,39.685,37.205,66.968,37.205s52.087-14.882,64.488-37.205C372.047,639.213,359.646,619.37,339.803,619.37z"/>
		<path fill="#5C5B6C" d="M540.709,537.52l-9.922-12.402c-39.685-52.086-59.527-114.095-59.527-178.582v-17.362
			c0-89.292-64.488-168.662-153.779-178.583c-104.173-12.401-193.465,69.449-193.465,171.142v24.804
			c0,64.487-19.842,126.496-59.527,178.582l-9.921,12.402c-4.96,4.96-7.441,14.882-4.96,19.842
			c7.441,22.323,27.283,37.205,49.606,37.205h396.85c22.323,0,42.166-14.882,47.126-37.205
			C545.669,549.922,543.188,542.48,540.709,537.52z"/>
	</g>
</g>
</svg>
