<?xml version="1.0" encoding="utf-8"?>
<!-- Generator: Adobe Illustrator 13.0.0, SVG Export Plug-In . SVG Version: 6.00 Build 14948)  -->
<!DOCTYPE svg PUBLIC "-//W3C//DTD SVG 1.1//EN" "http://www.w3.org/Graphics/SVG/1.1/DTD/svg11.dtd">
<svg version="1.1" id="Layer_1" xmlns="http://www.w3.org/2000/svg" xmlns:xlink="http://www.w3.org/1999/xlink" x="0px" y="0px"
	 width="512px" height="512px" viewBox="0 0 512 512" enable-background="new 0 0 512 512" xml:space="preserve">
<path fill="#5C5B6C" d="M497.913,497.912c-18.782,18.782-49.225,18.782-68.008,0l-84.862-84.862
	c-34.889,22.382-76.13,35.717-120.659,35.717C100.469,448.767,0,348.312,0,224.383S100.469,0,224.384,0
	c123.932,0,224.384,100.452,224.384,224.383c0,44.514-13.352,85.771-35.718,120.676l84.863,84.863
	C516.695,448.703,516.695,479.131,497.913,497.912z M224.384,64.109c-88.511,0-160.274,71.747-160.274,160.273
	c0,88.525,71.764,160.273,160.274,160.273c88.525,0,160.273-71.747,160.273-160.273S312.909,64.109,224.384,64.109z"/>
</svg>
