<?xml version="1.0" encoding="utf-8"?>
<!-- Generator: Adobe Illustrator 13.0.0, SVG Export Plug-In . SVG Version: 6.00 Build 14948)  -->
<!DOCTYPE svg PUBLIC "-//W3C//DTD SVG 1.1//EN" "http://www.w3.org/Graphics/SVG/1.1/DTD/svg11.dtd">
<svg version="1.1" id="Layer_1" xmlns="http://www.w3.org/2000/svg" xmlns:xlink="http://www.w3.org/1999/xlink" x="0px" y="0px"
	 width="500px" height="500px" viewBox="0 0 500 500" enable-background="new 0 0 500 500" xml:space="preserve">
<path fill="#FFFFFF" d="M415.762,346.214c-26.346-34.435-60.323-52.243-117.74-57.963c-10.362-2.086-18.174-11.269-18.174-22.173
	c0-7.985,25.616-31.89,25.434-32.066c26.439-27.345,40.614-71.778,40.614-105.938c0-53.057-42.701-96.124-95.396-96.124
	c-52.694,0-95.398,43.067-95.398,96.124c0,34.347,13.811,79.046,40.523,106.392c0,0,25.529,23.629,25.529,31.614
	c0,11.543-8.721,21.168-19.989,22.535c-56.24,5.906-89.852,23.617-115.93,57.601c-7.541,9.812-11.631,29.527-11.902,40.07
	c0.09,2.725,0,45.427,0,45.427c0,20.077,16.264,36.34,36.343,36.34h281.648c20.078,0,36.345-16.263,36.345-36.34
	c0,0-0.089-42.702,0-45.427C427.4,375.741,423.3,356.025,415.762,346.214z"/>
</svg>
